<svg xmlns="http://www.w3.org/2000/svg" viewBox="0 0 500 360">
  <rect width="500" height="360" rx="28" fill="#231914"/>
  <radialGradient id="glow" cx=".5" cy=".55" r=".6">
    <stop stop-color="#f5791f" stop-opacity=".7"/>
    <stop offset="1" stop-color="#231914" stop-opacity="0"/>
  </radialGradient>
  <rect width="500" height="360" rx="28" fill="url(#glow)"/>
  <ellipse cx="250" cy="302" rx="165" ry="36" fill="#000" opacity=".35"/>
  <path d="M120 296 250 96l130 200Z" fill="#6b4635"/>
  <path d="M190 296 250 96l130 200Z" fill="#8d6249"/>
  <path d="M205 166c37 23 67 23 94 0 25 68 41 111 43 130H120c8-36 36-103 85-130Z" fill="#201714" opacity=".34"/>
  <path d="M204 88c18-64 77-76 96-2 20 4 52 30 44 74-71 4-178 3-220 0-9-47 39-70 80-72Z" fill="#f5791f"/>
  <path d="M231 85c7-49 42-66 58-4 29 11 47 35 40 68-48 7-121 5-174 0-9-36 27-58 76-64Z" fill="#f7c747"/>
  <circle cx="248" cy="134" r="42" fill="#ff4b2f"/>
  <g fill="#f7c747">
    <circle cx="128" cy="91" r="10"/>
    <circle cx="383" cy="108" r="8"/>
    <circle cx="344" cy="64" r="6"/>
    <circle cx="173" cy="50" r="6"/>
  </g>
  <path d="M98 295c-25-12-39-31-43-57m347 56c40-11 66-31 76-61" fill="none" stroke="#f5791f" stroke-width="14" stroke-linecap="round"/>
</svg>